<?xml version="1.0" encoding="UTF-8"?><svg id="Layer_2" xmlns="http://www.w3.org/2000/svg" viewBox="0 0 181.76 24.5"><defs><style>.cls-1{fill:#231f20;stroke-width:0px;}</style></defs><g id="Layer_1-2"><path class="cls-1" d="M7,9.37h-1.06v-4.25H1.06v4.25H0V.28h1.06v3.9h4.88V.28h1.06v9.09Z"/><path class="cls-1" d="M9.45,9.37V.28h5.21l-.04.94h-4.1v2.97h3.9v.93h-3.9v3.31h4.24l-.05.94h-5.25Z"/><path class="cls-1" d="M23.56.28v5.9c0,1.05-.29,1.86-.86,2.45-.57.59-1.44.88-2.61.88s-2.03-.29-2.59-.88-.84-1.4-.84-2.46V.28h1.07v5.9c0,.82.19,1.43.58,1.82s.99.58,1.81.58,1.39-.2,1.78-.59.59-1,.59-1.82V.28h1.06Z"/><path class="cls-1" d="M32.68,9.37h-1.23l-1.25-2.85c-.34-.77-.56-1.23-.65-1.38-.3.02-.65.03-1.06.03l-1.63-.05v4.25h-1.09V.18h2.91c.34,0,.63,0,.89.02s.51.05.77.09c.26.04.48.1.67.18.19.08.36.17.53.29.16.12.3.26.4.43.1.17.18.37.24.6.06.23.09.49.09.78,0,.57-.15,1.07-.45,1.48-.3.41-.73.7-1.28.86,0,0,.04.08.12.22s.18.31.29.51c.11.2.2.37.26.51l1.49,3.21ZM26.86,1.13v3.07c.17,0,.51,0,1.04.01.53,0,.93.01,1.22.01.78,0,1.33-.13,1.63-.39.31-.26.46-.67.46-1.24,0-.5-.15-.86-.44-1.11s-.79-.36-1.48-.36h-2.43Z"/><path class="cls-1" d="M35.59,9.37h-1.06V.28h1.06v9.09Z"/><path class="cls-1" d="M37.94,7.87c.95.47,1.96.7,3.04.7,1.33,0,2-.61,2-1.82,0-.39-.11-.71-.32-.96-.21-.24-.59-.43-1.15-.57l-1.81-.45c-1.38-.35-2.07-1.09-2.07-2.21,0-.86.3-1.51.89-1.93.59-.42,1.41-.63,2.46-.63.55,0,1.06.06,1.54.18s.88.28,1.2.48l-.31.87c-.27-.15-.64-.29-1.09-.41-.45-.12-.91-.18-1.37-.18-1.48,0-2.22.51-2.22,1.54,0,.35.11.63.34.84.23.21.57.37,1.02.48l1.73.42c.74.18,1.3.46,1.68.84.38.39.57.94.57,1.65,0,.93-.28,1.62-.85,2.09-.57.47-1.34.7-2.31.7-.73,0-1.38-.08-1.94-.23-.57-.15-1.02-.33-1.35-.53l.32-.88Z"/><path class="cls-1" d="M48.8,9.37h-1.07V1.22h-2.79V.28h6.66v.94h-2.79v8.14Z"/><path class="cls-1" d="M54.14,9.37h-1.06V.28h1.06v9.09Z"/><path class="cls-1" d="M60.64,1.06c-.68,0-1.27.17-1.77.5-.49.33-.86.78-1.1,1.34s-.36,1.21-.36,1.93c0,.54.07,1.04.2,1.49.13.45.33.84.59,1.18.26.34.6.6,1.02.79.42.19.9.28,1.45.28.7,0,1.43-.18,2.17-.55l.18.9c-.61.38-1.44.58-2.48.58-.68,0-1.3-.11-1.84-.34-.54-.23-.99-.55-1.35-.96-.35-.42-.62-.91-.81-1.49-.18-.58-.28-1.21-.28-1.92s.1-1.31.3-1.88c.2-.57.48-1.06.85-1.48.37-.41.82-.73,1.37-.96s1.16-.34,1.83-.34c1.02,0,1.88.23,2.58.68l-.42.87c-.67-.41-1.39-.61-2.15-.61Z"/><path class="cls-1" d="M69.46,9.37h-1.06V.28h1.06v9.09Z"/><path class="cls-1" d="M79.15,9.37h-1.2l-4.72-7.15-.31-.42c.03.86.05,1.63.05,2.3v5.27h-1V.28h1.19l4.73,7.15.31.42c-.03-1.31-.04-2.06-.04-2.27V.28h.99v9.09Z"/><path class="cls-1" d="M81.43,7.87c.95.47,1.96.7,3.04.7,1.33,0,2-.61,2-1.82,0-.39-.11-.71-.32-.96-.21-.24-.59-.43-1.15-.57l-1.81-.45c-1.38-.35-2.07-1.09-2.07-2.21,0-.86.3-1.51.89-1.93.59-.42,1.41-.63,2.46-.63.55,0,1.06.06,1.54.18s.88.28,1.2.48l-.31.87c-.27-.15-.64-.29-1.09-.41-.45-.12-.91-.18-1.37-.18-1.48,0-2.22.51-2.22,1.54,0,.35.11.63.34.84.23.21.57.37,1.02.48l1.73.42c.74.18,1.3.46,1.68.84.38.39.57.94.57,1.65,0,.93-.28,1.62-.85,2.09-.57.47-1.34.7-2.31.7-.73,0-1.38-.08-1.94-.23-.57-.15-1.02-.33-1.35-.53l.32-.88Z"/><path class="cls-1" d="M90.57,9.37h-1.06V.28h1.06v9.09Z"/><path class="cls-1" d="M97.05,9.5c-.69,0-1.31-.12-1.86-.35-.55-.23-1.01-.56-1.36-.97-.36-.42-.63-.91-.82-1.48-.19-.57-.29-1.19-.29-1.87,0-.92.17-1.73.52-2.43s.87-1.26,1.55-1.66c.69-.41,1.5-.61,2.44-.61,1.04,0,1.96.24,2.75.71l-.41.88c-.76-.44-1.54-.66-2.33-.66-.55,0-1.05.1-1.48.29-.44.19-.79.45-1.07.79-.28.34-.49.73-.63,1.19-.15.46-.22.96-.22,1.5,0,1.15.29,2.07.86,2.74.57.67,1.42,1,2.55,1,.64,0,1.29-.13,1.95-.39v-2.59h-2.14l.04-.93h3.1v4.15c-.52.25-1.01.42-1.5.52-.48.11-1.03.16-1.65.16Z"/><path class="cls-1" d="M109.38,9.37h-1.06v-4.25h-4.88v4.25h-1.06V.28h1.06v3.9h4.88V.28h1.06v9.09Z"/><path class="cls-1" d="M114.67,9.37h-1.07V1.22h-2.79V.28h6.66v.94h-2.79v8.14Z"/><path class="cls-1" d="M118.72,7.87c.95.47,1.96.7,3.04.7,1.33,0,2-.61,2-1.82,0-.39-.11-.71-.32-.96-.21-.24-.59-.43-1.15-.57l-1.81-.45c-1.38-.35-2.07-1.09-2.07-2.21,0-.86.3-1.51.89-1.93.59-.42,1.41-.63,2.46-.63.55,0,1.06.06,1.54.18s.88.28,1.2.48l-.31.87c-.27-.15-.64-.29-1.09-.41-.45-.12-.91-.18-1.37-.18-1.48,0-2.22.51-2.22,1.54,0,.35.11.63.34.84.23.21.57.37,1.02.48l1.73.42c.74.18,1.3.46,1.68.84.38.39.57.94.57,1.65,0,.93-.28,1.62-.85,2.09-.57.47-1.34.7-2.31.7-.73,0-1.38-.08-1.94-.23-.57-.15-1.02-.33-1.35-.53l.32-.88Z"/><path class="cls-1" d="M1.06,24.36H0v-9.09h5.04l-.04.94H1.06v3.19h3.75v.9H1.06v4.05Z"/><path class="cls-1" d="M14.94,19.82c0,.69-.1,1.33-.29,1.9-.19.57-.47,1.07-.82,1.48-.36.41-.81.73-1.35.96-.54.23-1.16.34-1.84.34-.92,0-1.7-.2-2.36-.59-.65-.39-1.14-.94-1.47-1.63-.33-.7-.49-1.52-.49-2.46,0-1.45.38-2.6,1.14-3.44s1.82-1.26,3.18-1.26,2.39.42,3.15,1.27c.76.84,1.14,1.99,1.14,3.44ZM7.46,19.82c0,1.17.27,2.08.8,2.75.54.67,1.33,1,2.38,1s1.84-.33,2.37-1c.53-.66.8-1.58.8-2.75s-.27-2.12-.8-2.78c-.53-.66-1.32-.99-2.36-.99s-1.83.33-2.37.99-.82,1.59-.82,2.78Z"/><path class="cls-1" d="M23.76,24.36h-1.23l-1.25-2.85c-.34-.77-.56-1.23-.65-1.38-.3.02-.65.03-1.06.03l-1.63-.05v4.25h-1.09v-9.19h2.91c.34,0,.63,0,.89.02s.51.05.77.09c.26.04.48.1.67.18.19.08.36.17.53.29.16.12.3.26.4.43.1.17.18.37.24.6.06.23.09.49.09.78,0,.57-.15,1.07-.45,1.48-.3.41-.73.7-1.28.86,0,0,.04.08.12.22s.18.31.29.51c.11.2.2.37.26.51l1.49,3.21ZM17.93,16.12v3.07c.17,0,.51,0,1.04.01.53,0,.93.01,1.22.01.78,0,1.33-.13,1.63-.39.31-.26.46-.67.46-1.24,0-.5-.15-.86-.44-1.11s-.79-.36-1.48-.36h-2.43Z"/><path class="cls-1" d="M34.82,24.36l-1.06-2.88h-3.62l-1.1,2.88h-1.08l3.49-9.1h1.09l3.38,9.1h-1.09ZM33.41,20.59c-.86-2.51-1.34-3.92-1.43-4.23l-1.49,4.23h2.92Z"/><path class="cls-1" d="M46.22,15.27h1.14l-3.3,9.09h-1.11l-3.29-9.09h1.14l2.02,5.76c.26.75.49,1.46.68,2.12.06-.31.29-1.02.69-2.14.64-1.83,1.31-3.74,2.03-5.74Z"/><path class="cls-1" d="M48.71,24.36v-9.09h5.21l-.04.94h-4.1v2.97h3.9v.93h-3.9v3.31h4.24l-.05.94h-5.25Z"/><path class="cls-1" d="M62.79,24.36h-1.23l-1.25-2.85c-.34-.77-.56-1.23-.65-1.38-.3.02-.65.03-1.06.03l-1.63-.05v4.25h-1.09v-9.19h2.91c.34,0,.63,0,.89.02s.51.05.77.09c.26.04.48.1.67.18.19.08.36.17.53.29.16.12.3.26.4.43.1.17.18.37.24.6.06.23.09.49.09.78,0,.57-.15,1.07-.45,1.48-.3.41-.73.7-1.28.86,0,0,.04.08.12.22s.18.31.29.51c.11.2.2.37.26.51l1.49,3.21ZM56.97,16.12v3.07c.17,0,.51,0,1.04.01.53,0,.93.01,1.22.01.78,0,1.33-.13,1.63-.39.31-.26.46-.67.46-1.24,0-.5-.15-.86-.44-1.11s-.79-.36-1.48-.36h-2.43Z"/><path class="cls-1" d="M65.7,24.36h-1.06v-9.09h1.06v9.09Z"/><path class="cls-1" d="M71.06,24.36h-1.07v-8.14h-2.79v-.94h6.66v.94h-2.79v8.14Z"/><path class="cls-1" d="M81.03,24.36l-1.06-2.88h-3.62l-1.1,2.88h-1.08l3.49-9.1h1.09l3.38,9.1h-1.09ZM79.63,20.59c-.86-2.51-1.34-3.92-1.43-4.23l-1.49,4.23h2.92Z"/><path class="cls-1" d="M83.53,15.27h2.6c1.17,0,2.03.18,2.59.54s.84.92.84,1.7c0,.12,0,.23-.02.34-.01.11-.05.26-.11.43s-.14.34-.24.48c-.1.14-.25.29-.45.44-.2.15-.43.26-.7.35.61.12,1.07.37,1.39.78s.47.88.47,1.45c0,.82-.27,1.46-.81,1.91-.54.45-1.34.68-2.41.68h-3.17v-9.09ZM84.59,19.18h1.95c.63,0,1.11-.11,1.44-.33s.49-.61.49-1.18-.19-.96-.58-1.18c-.39-.22-.99-.32-1.8-.32h-1.49v3.01ZM84.59,20.03v3.45h1.9c.77,0,1.35-.14,1.73-.43.38-.28.58-.73.58-1.33s-.21-1.07-.62-1.32c-.42-.25-1.06-.38-1.94-.38h-1.64Z"/><path class="cls-1" d="M91.74,24.36v-9.09h1.07v8.14h4l-.04.95h-5.03Z"/><path class="cls-1" d="M98.33,24.36v-9.09h5.21l-.04.94h-4.1v2.97h3.9v.93h-3.9v3.31h4.24l-.05.94h-5.25Z"/><path class="cls-1" d="M109.12,24.36v-9.09h5.21l-.04.94h-4.1v2.97h3.9v.93h-3.9v3.31h4.24l-.05.94h-5.25Z"/><path class="cls-1" d="M120.44,16.05c-.68,0-1.27.17-1.77.5-.49.33-.86.78-1.1,1.34s-.36,1.21-.36,1.93c0,.54.07,1.04.2,1.49.13.45.33.84.59,1.18.26.34.6.6,1.02.79.42.19.9.28,1.45.28.7,0,1.43-.18,2.17-.55l.18.9c-.61.38-1.44.58-2.48.58-.68,0-1.3-.11-1.84-.34-.54-.23-.99-.55-1.35-.96-.35-.42-.62-.91-.81-1.49-.18-.58-.28-1.21-.28-1.92s.1-1.31.3-1.88c.2-.57.48-1.06.85-1.48.37-.41.82-.73,1.37-.96s1.16-.34,1.83-.34c1.02,0,1.88.23,2.58.68l-.42.87c-.67-.41-1.39-.61-2.15-.61Z"/><path class="cls-1" d="M132.92,19.82c0,.69-.1,1.33-.29,1.9-.19.57-.47,1.07-.82,1.48-.36.41-.81.73-1.35.96-.54.23-1.16.34-1.84.34-.92,0-1.7-.2-2.36-.59-.65-.39-1.14-.94-1.47-1.63-.33-.7-.49-1.52-.49-2.46,0-1.45.38-2.6,1.14-3.44s1.82-1.26,3.18-1.26,2.39.42,3.15,1.27c.76.84,1.14,1.99,1.14,3.44ZM125.44,19.82c0,1.17.27,2.08.8,2.75.54.67,1.33,1,2.38,1s1.84-.33,2.37-1c.53-.66.8-1.58.8-2.75s-.27-2.12-.8-2.78c-.53-.66-1.32-.99-2.36-.99s-1.83.33-2.37.99-.82,1.59-.82,2.78Z"/><path class="cls-1" d="M134.82,22.86c.95.47,1.96.7,3.04.7,1.33,0,2-.61,2-1.82,0-.39-.11-.71-.32-.96-.21-.24-.59-.43-1.15-.57l-1.81-.45c-1.38-.35-2.07-1.09-2.07-2.21,0-.86.3-1.51.89-1.93.59-.42,1.41-.63,2.46-.63.55,0,1.06.06,1.54.18s.88.28,1.2.48l-.31.87c-.27-.15-.64-.29-1.09-.41-.45-.12-.91-.18-1.37-.18-1.48,0-2.22.51-2.22,1.54,0,.35.11.63.34.84.23.21.57.37,1.02.48l1.73.42c.74.18,1.3.46,1.68.84.38.39.57.94.57,1.65,0,.93-.28,1.62-.85,2.09-.57.47-1.34.7-2.31.7-.73,0-1.38-.08-1.94-.23-.57-.15-1.02-.33-1.35-.53l.32-.88Z"/><path class="cls-1" d="M145.4,19.73l2.56-4.45h1.15l-3.21,5.46v3.62h-1.07v-3.6l-3.07-5.49h1.15l2.49,4.45Z"/><path class="cls-1" d="M150.32,22.86c.95.47,1.96.7,3.04.7,1.33,0,2-.61,2-1.82,0-.39-.11-.71-.32-.96-.21-.24-.59-.43-1.15-.57l-1.81-.45c-1.38-.35-2.07-1.09-2.07-2.21,0-.86.3-1.51.89-1.93.59-.42,1.41-.63,2.46-.63.55,0,1.06.06,1.54.18s.88.28,1.2.48l-.31.87c-.27-.15-.64-.29-1.09-.41-.45-.12-.91-.18-1.37-.18-1.48,0-2.22.51-2.22,1.54,0,.35.11.63.34.84.23.21.57.37,1.02.48l1.73.42c.74.18,1.3.46,1.68.84.38.39.57.94.57,1.65,0,.93-.28,1.62-.85,2.09-.57.47-1.34.7-2.31.7-.73,0-1.38-.08-1.94-.23-.57-.15-1.02-.33-1.35-.53l.32-.88Z"/><path class="cls-1" d="M161.18,24.36h-1.07v-8.14h-2.79v-.94h6.66v.94h-2.79v8.14Z"/><path class="cls-1" d="M165.41,24.36v-9.09h5.21l-.04.94h-4.1v2.97h3.9v.93h-3.9v3.31h4.24l-.05.94h-5.25Z"/><path class="cls-1" d="M176.72,23.8l-2.79-6.49-.23-.62.04,2.22v5.44h-1v-9.09h1.38l3.16,7.24,3.13-7.24h1.34v9.09h-1.03v-5.47l.04-2.17-.23.62-2.78,6.46h-1.04Z"/></g></svg>