<?xml version="1.0" encoding="UTF-8"?><svg id="Layer_2" xmlns="http://www.w3.org/2000/svg" viewBox="0 0 246.01 229.98"><defs><style>.cls-1{fill:#231f20;stroke-width:0px;}</style></defs><g id="Layer_1-2"><path class="cls-1" d="M53.48,84.08v62.72h-12.97v-27.98H12.97v27.98H0v-62.72h12.97v25.67h27.54v-25.67h12.97Z"/><path class="cls-1" d="M96.65,146.8h-12.97v-62.72h12.97v62.72Z"/><path class="cls-1" d="M145.07,146.8l-23.81-62.72h12.88l16.79,47.17,15.99-47.17h12.53l-22.92,62.72h-11.46Z"/><path class="cls-1" d="M243.23,93.59h-26.83v15.55h25.85v9.42h-25.85v18.74l29.14.36-.53,9.15h-41.57v-62.72h40.86l-1.07,9.51Z"/><polygon class="cls-1" points="236.21 167.26 181.23 222.25 73.96 193.51 66.93 167.26 59.76 167.26 68.31 199.16 183.3 229.98 246.01 167.26 236.21 167.26"/><polygon class="cls-1" points="68.4 63.62 124.3 7.72 231.56 36.46 238.84 63.62 246.01 63.62 237.22 30.81 122.23 0 58.61 63.62 68.4 63.62"/></g></svg>